HIERARCHY
ROOT Hips
{
	OFFSET	0.00	0.00	0.00
	CHANNELS 6 Xposition Yposition Zposition Zrotation Xrotation Yrotation
	JOINT LeftUpLeg
	{
		OFFSET	 0.126116	-0.065224	 0.014019
		CHANNELS 3 Zrotation Xrotation Yrotation
		JOINT LeftLeg
		{
			OFFSET	 0.000000	 0.569914	 0.000000
			CHANNELS 3 Zrotation Xrotation Yrotation
			JOINT LeftFoot
			{
				OFFSET	 0.000000	 0.544423	 0.000000
				CHANNELS 3 Zrotation Xrotation Yrotation
				JOINT LeftToeBase
				{
					OFFSET	 0.000000	 0.207117	 0.000000
					CHANNELS 3 Zrotation Xrotation Yrotation
					End Site
					{
						OFFSET	 0.000000	 0.207117	 0.000000
					}
				}
			}
		}
	}
	JOINT RightUpLeg
	{
		OFFSET	-0.124023	-0.065224	 0.008373
		CHANNELS 3 Zrotation Xrotation Yrotation
		JOINT RightLeg
		{
			OFFSET	 0.000000	 0.570047	 0.000000
			CHANNELS 3 Zrotation Xrotation Yrotation
			JOINT RightFoot
			{
				OFFSET	 0.000000	 0.544354	 0.000000
				CHANNELS 3 Zrotation Xrotation Yrotation
				JOINT RightToeBase
				{
					OFFSET	 0.000000	 0.207540	 0.000000
					CHANNELS 3 Zrotation Xrotation Yrotation
					End Site
					{
						OFFSET	 0.000000	 0.207540	 0.000000
					}
				}
			}
		}
	}
	JOINT Spine
	{
		OFFSET	 0.000184	 0.117403	 0.007763
		CHANNELS 3 Zrotation Xrotation Yrotation
		JOINT Spine1
		{
			OFFSET	 0.000000	 0.137269	 0.000000
			CHANNELS 3 Zrotation Xrotation Yrotation
			JOINT Spine2
			{
				OFFSET	 0.000000	 0.156879	 0.000000
				CHANNELS 3 Zrotation Xrotation Yrotation
				JOINT LeftShoulder
				{
					OFFSET	 0.080501	 0.160143	 0.002496
					CHANNELS 3 Zrotation Xrotation Yrotation
					JOINT LeftArm
					{
						OFFSET	 0.000000	 0.164363	 0.000000
						CHANNELS 3 Zrotation Xrotation Yrotation
						JOINT LeftForeArm
						{
							OFFSET	 0.000000	 0.364576	 0.000000
							CHANNELS 3 Zrotation Xrotation Yrotation
							JOINT LeftHand
							{
								OFFSET	 0.000000	 0.360812	 0.000000
								CHANNELS 3 Zrotation Xrotation Yrotation
								JOINT LeftHandIndex1
								{
									OFFSET	 0.000000	 0.086006	 0.000000
									CHANNELS 3 Zrotation Xrotation Yrotation
									JOINT LeftHandIndex2
									{
										OFFSET	 0.000000	 0.047237	 0.000000
										CHANNELS 3 Zrotation Xrotation Yrotation
										JOINT LeftHandIndex3
										{
											OFFSET	-0.004284	 0.038165	 0.000551
											CHANNELS 3 Zrotation Xrotation Yrotation
											End Site
											{
												OFFSET	-0.004284	 0.038165	 0.000551
											}
										}
									}
								}
							}
						}
					}
				}
				JOINT Neck
				{
					OFFSET	 0.000000	 0.176489	 0.000000
					CHANNELS 3 Zrotation Xrotation Yrotation
					JOINT Head
					{
						OFFSET	 0.000000	 0.077941	 0.001747
						CHANNELS 3 Zrotation Xrotation Yrotation
						End Site
						{
							OFFSET	 0.000000	 0.077941	 0.001747
						}
					}
				}
				JOINT RightShoulder
				{
					OFFSET	-0.080363	 0.159706	-0.000306
					CHANNELS 3 Zrotation Xrotation Yrotation
					JOINT RightArm
					{
						OFFSET	 0.000000	 0.164196	 0.000000
						CHANNELS 3 Zrotation Xrotation Yrotation
						JOINT RightForeArm
						{
							OFFSET	 0.000000	 0.365611	 0.000000
							CHANNELS 3 Zrotation Xrotation Yrotation
							JOINT RightHand
							{
								OFFSET	 0.000000	 0.360648	 0.000000
								CHANNELS 3 Zrotation Xrotation Yrotation
								JOINT RightHandIndex1
								{
									OFFSET	 0.000000	 0.069977	 0.000000
									CHANNELS 3 Zrotation Xrotation Yrotation
									JOINT RightHandIndex2
									{
										OFFSET	 0.000000	 0.052305	 0.000000
										CHANNELS 3 Zrotation Xrotation Yrotation
										JOINT RightHandIndex3
										{
											OFFSET	 0.009002	 0.042196	 0.000782
											CHANNELS 3 Zrotation Xrotation Yrotation
											End Site
											{
												OFFSET	 0.009002	 0.042196	 0.000782
											}
										}
									}
								}
							}
						}
					}
				}
			}
		}
	}
}
MOTION
Frames:    9
Frame Time: 0.03333334
 0.000384	 1.271132	 0.063366	 0.363635	-0.006070	 179.993400	-178.782600	 2.016323	-0.001681	 2.676929	-12.432540	 0.034177	-4.471000	 71.667240	 4.656490	 1.292262	 28.425850	-2.713146	 179.295800	 1.689196	 0.059099	-2.348538	-11.272360	 0.034442	 4.440853	 70.895910	-4.752282	-1.288183	 28.361890	 2.710176	-0.133558	 2.922979	-9.366317	 2.099873	 3.112552	-4.821055	-2.000917	-3.904663	 14.108410	-101.478000	 1.740660	 90.353390	-0.637845	 61.615870	 3.427013	 6.722514	 13.763910	 0.642855	-2.152627	-17.009600	-33.867520	-6.580301	 5.266122	 0.000000	 0.000000	 0.000000	 0.000000	 0.000000	 0.000000	 0.000000	 0.089846	-3.783161	 0.005928	-0.025345	 0.827899	 3.506917	 101.796200	-0.213304	-89.955440	-7.124074	 66.696290	-1.757442	-5.463532	 8.310920	 1.678403	-20.032160	-2.705748	-29.502410	 15.208500	 5.323790	 0.000000	 0.000000	 0.000000	 0.000000	 0.000000	 0.000000	 0.000000
 0.000286	 1.272139	 0.063300	 0.401428	-0.007814	 179.992600	-178.751900	 2.038443	-0.002440	 2.686325	-12.474790	 0.036206	-4.433683	 71.521060	 4.619546	 1.292262	 28.425850	-2.713146	 179.318200	 1.632500	 0.065001	-2.322705	-11.151550	 0.039462	 4.393360	 70.665370	-4.718386	-1.288183	 28.361890	 2.710176	-0.056680	 2.502058	-9.198735	 2.000513	 4.560179	-4.821830	-1.808329	-5.766468	 13.901150	-101.478000	 1.740664	 90.353380	-2.849073	 60.804240	 5.469692	 7.390613	 15.065330	 0.476452	-0.867063	-18.955760	-33.359210	-6.580301	 5.266122	 0.000000	 0.000000	 0.000000	 0.000000	 0.000000	 0.000000	 0.000000	 0.089846	-3.783161	 0.005928	-0.018666	 0.621568	 3.440269	 101.796200	-0.213307	-89.955450	-2.307331	 64.296190	-6.196549	-8.879830	 13.323580	 2.243096	-21.176930	-5.219111	-30.459310	 15.208500	 5.323790	 0.000000	 0.000000	 0.000000	 0.000000	 0.000000	 0.000000	 0.000000
 0.000221	 1.273186	 0.063232	 0.426253	-0.010231	 179.992100	-178.727800	 2.036807	-0.004384	 2.684485	-12.466510	 0.035808	-4.390035	 71.346530	 4.581088	 1.292262	 28.425850	-2.713146	 179.328800	 1.576809	 0.070215	-2.297076	-11.031610	 0.044391	 4.342149	 70.433230	-4.681428	-1.288183	 28.361890	 2.710176	 0.019631	 2.076539	-8.760947	 1.845843	 6.027270	-4.689355	-1.566031	-7.674669	 13.303410	-101.478000	 1.740665	 90.353390	-4.986747	 60.029150	 7.438280	 7.993772	 16.225080	 0.313791	 0.615668	-21.257690	-31.891100	-6.580301	 5.266122	 0.000000	 0.000000	 0.000000	 0.000000	 0.000000	 0.000000	 0.000000	 0.089846	-3.783161	 0.005928	-0.012382	 0.433444	 3.272543	 101.796200	-0.213316	-89.955440	 1.753857	 61.270450	-9.884914	-13.161400	 19.255930	 3.308919	-22.655230	-8.711782	-31.444320	 15.208500	 5.323790	 0.000000	 0.000000	 0.000000	 0.000000	 0.000000	 0.000000	 0.000000
 0.000220	 1.274388	 0.063160	 0.428049	-0.013995	 179.993200	-178.715300	 1.992577	-0.008626	 2.662268	-12.366600	 0.031029	-4.334296	 71.106180	 4.539679	 1.292262	 28.425850	-2.713146	 179.318500	 1.523123	 0.074582	-2.271750	-10.912980	 0.049213	 4.278776	 70.183660	-4.633605	-1.288183	 28.361890	 2.710176	 0.089222	 1.615959	-7.929822	 1.608397	 7.629518	-4.354364	-1.253990	-9.792796	 12.125000	-101.478000	 1.740674	 90.353380	-7.247329	 59.243890	 9.510768	 8.566093	 17.311530	 0.148740	 2.658767	-24.133490	-28.982770	-6.580301	 5.266122	 0.000000	 0.000000	 0.000000	 0.000000	 0.000000	 0.000000	 0.000000	 0.089846	-3.783161	 0.005928	-0.006489	 0.251454	 2.956727	 101.796200	-0.213335	-89.955440	 5.048902	 57.433070	-12.777360	-18.955290	 26.489970	 5.346772	-24.736650	-13.770670	-32.634740	 15.208500	 5.323790	 0.000000	 0.000000	 0.000000	 0.000000	 0.000000	 0.000000	 0.000000
 0.001022	 1.278244	 0.062956	 0.152176	-0.029485	-179.995700	-178.852100	 1.489286	-0.049468	 2.423562	-11.288270	-0.017897	-4.127649	 69.966850	 4.444717	 1.292262	 28.425850	-2.713146	 179.081200	 1.615555	 0.065528	-2.305651	-11.071770	 0.042747	 4.094862	 69.687000	-4.456494	-1.288183	 28.361890	 2.710176	 0.017214	 0.536663	-2.603316	 0.407583	 11.515570	-1.488554	-0.240718	-15.132390	 4.017039	-101.478000	 1.740676	 90.353390	-12.694330	 57.833880	 14.453610	 9.438210	 18.939270	-0.122654	 14.859600	-32.883960	-8.408452	-6.580301	 5.266122	 0.000000	 0.000000	 0.000000	 0.000000	 0.000000	 0.000000	 0.000000	 0.089846	-3.783161	 0.005928	 0.000674	-0.080996	 0.954065	 101.796200	-0.213316	-89.955450	 6.216302	 44.199980	-12.281650	-50.274340	 49.719560	 24.274360	-33.923740	-41.201890	-40.663050	 15.208500	 5.323790	 0.000000	 0.000000	 0.000000	 0.000000	 0.000000	 0.000000	 0.000000
 0.002333	 1.285701	 0.062442	-0.396583	 0.004800	-179.992600	-179.304000	 1.196155	-0.115965	 2.305733	-10.752860	-0.040423	-3.936352	 68.268680	 4.314950	 1.292262	 28.425850	-2.713146	 178.745100	 2.423219	 0.067494	-2.679017	-12.808270	-0.034506	 4.097508	 69.161220	-4.342971	-1.288183	 28.361890	 2.710176	-0.092495	 2.776048	 9.317322	-2.104113	 3.695528	 4.851082	 1.947767	-4.623583	-14.080830	-101.478000	 1.740666	 90.353390	-4.812491	 53.475380	 6.257187	 10.744470	 21.311330	-0.572212	 29.947600	-26.314230	 36.910130	-6.580301	 5.266122	 0.000000	 0.000000	 0.000000	 0.000000	 0.000000	 0.000000	 0.000000	 0.089846	-3.783161	 0.005928	 0.022476	 0.737170	-3.492732	 101.796200	-0.213309	-89.955470	-91.539580	 1.944672	 67.400600	-19.602790	 27.235930	-0.435969	-18.815340	-63.486340	-97.113170	 15.208500	 5.323790	 0.000000	 0.000000	 0.000000	 0.000000	 0.000000	 0.000000	 0.000000
 0.001040	 1.294668	 0.061830	 0.112141	-0.005910	 179.996800	-178.942600	 1.749856	-0.138235	 2.553087	-11.874450	 0.008107	-3.837747	 67.291590	 4.159011	 1.292262	 28.425850	-2.713146	 179.108300	 1.952925	 0.137993	-2.464201	-11.811940	 0.011297	 3.828307	 67.089120	-4.183285	-1.288183	 28.361890	 2.710176	-0.090262	 2.808062	-2.630985	 0.585199	 3.357280	-1.353516	-0.554342	-4.283662	 3.958859	-101.478000	 1.740657	 90.353390	-6.593660	 52.851960	 8.318940	 15.116730	 28.621460	-2.422232	 5.539666	-1.439918	-7.955118	-6.580301	 5.266122	 0.000000	 0.000000	 0.000000	 0.000000	 0.000000	 0.000000	 0.000000	 0.089846	-3.783161	 0.005928	-0.010818	 1.271635	 0.974826	 101.796200	-0.213316	-89.955450	-4.263424	 40.744610	-0.753636	-66.228370	 54.540380	 35.870650	 6.827781	-18.980110	-30.697960	 15.208500	 5.323790	 0.000000	 0.000000	 0.000000	 0.000000	 0.000000	 0.000000	 0.000000
 0.000827	 1.295471	 0.061765	 0.178406	-0.003299	 179.996700	-178.903400	 1.837747	-0.127227	 2.594790	-12.062650	 0.016755	-3.813064	 67.240980	 4.120065	 1.292262	 28.425850	-2.713146	 179.155800	 1.887883	 0.157770	-2.436624	-11.683490	 0.016910	 3.825541	 66.874040	-4.197812	-1.288183	 28.361890	 2.710176	-0.105468	 2.833961	-4.515636	 1.013223	 3.300697	-2.331230	-0.957738	-4.200288	 6.804620	-101.478000	 1.740659	 90.353370	-6.578432	 52.688330	 8.329403	 15.535640	 29.268980	-2.624948	 5.919708	-1.662716	-14.426470	-6.580301	 5.266122	 0.000000	 0.000000	 0.000000	 0.000000	 0.000000	 0.000000	 0.000000	 0.089846	-3.783161	 0.005928	-0.017539	 1.197372	 1.678373	 101.796200	-0.213331	-89.955430	-1.174143	 43.862960	-4.815607	-52.049780	 50.423190	 24.995020	 4.170149	-10.250510	-33.492000	 15.208500	 5.323790	 0.000000	 0.000000	 0.000000	 0.000000	 0.000000	 0.000000	 0.000000
 0.000882	 1.279725	 0.062238	 0.058393	 0.331937	-179.990100	 179.961100	 6.412041	-0.064530	 4.957982	-22.193250	 0.715548	-6.303738	 72.460370	 5.550386	 1.292262	 28.425850	-2.713146	-179.935000	 6.638757	 0.086097	-4.808094	-22.180380	-0.676743	 6.249616	 72.282590	-5.554086	-1.288183	 28.361890	 2.710176	-0.231467	 3.317182	-4.532413	 0.796498	 2.457491	-2.318740	-0.825270	-3.179699	 6.816692	-101.483600	 1.829806	 90.353570	-1.627995	 60.544240	 4.211931	 7.334489	 14.958400	 0.496255	 9.624920	 6.280090	-15.559140	-6.580301	 5.266122	 0.000000	 0.000000	 0.000000	 0.000000	 0.000000	 0.000000	 0.000000	 0.089846	-3.783161	 0.005928	-0.018698	 1.276748	 1.678027	 101.803000	-0.123968	-89.955440	-2.792054	 46.827670	-3.732342	-44.055250	 46.902110	 21.113120	 12.014220	-9.377168	-16.803030	 15.208500	 5.323790	 0.000000	 0.000000	 0.000000	 0.000000	 0.000000	 0.000000	 0.000000
